<svg width="100" height="125" viewBox="0 0 100 125" fill="none" xmlns="http://www.w3.org/2000/svg">
<path d="M27.4002 48.7994C26.7002 48.1994 26.1002 48.3994 26.1002 48.3994H20.4002V39.9994H15.7002V35.3994C17.4002 36.6994 18.9002 37.3994 19.3002 37.0994C19.7002 36.5994 18.3002 34.7994 16.2002 32.9994C14.1002 31.1994 12.1002 30.0994 11.7002 30.5994C11.4002 30.9994 12.5002 32.5994 14.3002 34.1994H9.2002V39.9994H4.3002V53.9994H20.0002C20.0002 53.9994 19.9002 55.0994 20.1002 55.8994C20.4002 56.8994 21.3002 56.9994 21.3002 56.9994H28.1002V49.9994C28.1002 49.9994 28.2002 49.2994 27.4002 48.7994ZM7.9002 51.4994C7.1002 51.4994 6.4002 50.7994 6.4002 49.9994C6.4002 49.1994 7.1002 48.4994 7.9002 48.4994C8.7002 48.4994 9.4002 49.1994 9.4002 49.9994C9.4002 50.7994 8.7002 51.4994 7.9002 51.4994ZM12.2002 51.5994C11.4002 51.5994 10.7002 50.8994 10.7002 50.0994C10.7002 49.2994 11.4002 48.5994 12.2002 48.5994C13.0002 48.5994 13.7002 49.2994 13.7002 50.0994C13.6002 50.8994 13.0002 51.5994 12.2002 51.5994ZM16.4002 51.5994C15.6002 51.5994 14.9002 50.8994 14.9002 50.0994C14.9002 49.2994 15.6002 48.5994 16.4002 48.5994C17.2002 48.5994 17.9002 49.2994 17.9002 50.0994C17.9002 50.8994 17.2002 51.5994 16.4002 51.5994ZM56.1002 38.8994H65.8002V41.6994H56.1002V38.8994ZM56.1002 45.3994H65.8002V42.5994H56.1002V45.3994ZM45.5002 37.7994H55.2002V34.9994H45.5002V37.7994ZM45.5002 41.5994H55.2002V38.7994H45.5002V41.5994ZM45.5002 45.3994H55.2002V42.5994H45.5002V45.3994ZM61.2002 49.1994H70.9002V46.3994H61.2002V49.1994ZM61.2002 52.9994H70.9002V50.1994H61.2002V52.9994ZM61.2002 56.7994H70.9002V53.9994H61.2002V56.7994ZM50.8002 49.1994H60.5002V46.3994H50.8002V49.1994ZM50.8002 52.9994H60.5002V50.1994H50.8002V52.9994ZM50.8002 56.7994H60.5002V53.9994H50.8002V56.7994ZM40.3002 49.1994H50.0002V46.3994H40.3002V49.1994ZM40.3002 52.9994H50.0002V50.1994H40.3002V52.9994ZM40.3002 56.7994H50.0002V53.9994H40.3002V56.7994ZM29.9002 49.1994H39.6002V46.3994H29.9002V49.1994ZM29.9002 52.9994H39.6002V50.1994H29.9002V52.9994ZM29.9002 56.7994H39.6002V53.9994H29.9002V56.7994ZM53.2002 69.6994H61.7002H85.4002C83.7002 71.5994 82.3002 71.6994 82.3002 71.6994H61.7002H53.2002H12.0002L11.3002 69.6994H53.2002ZM86.3002 68.4994H11.0002L10.0002 66.0994C10.0002 66.0994 9.2002 65.6994 5.9002 62.3994C2.2002 58.6994 2.2002 55.0994 2.2002 55.0994H18.6002C18.6002 55.0994 18.6002 56.4994 19.3002 57.1994C20.2002 58.0994 21.0002 58.0994 21.0002 58.0994H71.0002C71.0002 58.0994 72.0002 58.0994 72.8002 57.0994C73.6002 56.0994 73.6002 55.0994 73.6002 55.0994H98.6002C98.6002 55.0994 98.6002 56.4994 95.9002 58.9994L86.3002 68.4994Z" fill="black"/>
</svg>
